<svg width="104" height="19" viewBox="0 0 104 19" fill="none" xmlns="http://www.w3.org/2000/svg">
<path d="M18.239 18.0117H15.2859L13.5046 8.75391L10.0476 18.2344H8.95776L5.50073 8.75391L3.64917 18.0117H0.707764L4.16479 0.832031H5.78198L9.49683 12.3984L13.1296 0.832031H14.7351L18.239 18.0117ZM27.2507 10.957V18H24.2039V10.957L18.4148 0.832031H21.6492L25.7156 8.15625L29.7937 0.832031H33.0164L27.2507 10.957Z" fill="#7177F1"/>
<path d="M47.9812 18.2344H46.7507L44.8875 7.75781L39.321 18.2344H38.0906L35.6648 0.832031H38.7703L40.071 11.2383L45.4851 0.832031H46.8093L48.4031 11.168L53.4187 0.832031H56.7234L47.9812 18.2344ZM56.4773 11.6133C56.4773 8.55859 57.3093 5.94922 58.9734 3.78516C60.6453 1.61328 62.8171 0.527344 65.489 0.527344C67.5437 0.527344 69.1257 1.07422 70.2351 2.16797C71.3445 3.25391 71.8992 4.82812 71.8992 6.89062C71.8992 10.2734 71.0476 13.0195 69.3445 15.1289C67.6414 17.2383 65.3093 18.293 62.3484 18.293C60.5359 18.293 59.1023 17.6836 58.0476 16.4648C57.0007 15.2383 56.4773 13.6211 56.4773 11.6133ZM59.6414 11.2969C59.6414 12.6172 59.9031 13.668 60.4265 14.4492C60.95 15.2305 61.7156 15.6211 62.7234 15.6211C64.5828 15.6211 66.0515 14.7852 67.1296 13.1133C68.2078 11.4414 68.7468 9.44531 68.7468 7.125C68.7468 4.5 67.5906 3.1875 65.2781 3.1875C63.6531 3.1875 62.3054 4.04688 61.2351 5.76562C60.1726 7.48438 59.6414 9.32812 59.6414 11.2969ZM82.071 10.3945L85.9031 18H82.4695L79.1882 10.8984C78.657 10.8906 78.0046 10.8594 77.2312 10.8047L75.907 18H72.7664L75.907 0.832031C78.1882 0.714844 79.6843 0.65625 80.3953 0.65625C82.2468 0.65625 83.7078 1.01563 84.7781 1.73438C85.8562 2.44531 86.3953 3.47656 86.3953 4.82812C86.3953 6.20312 86.0007 7.39844 85.2117 8.41406C84.4304 9.42188 83.3835 10.082 82.071 10.3945ZM78.5671 3.46875L77.6882 8.27344C78.1492 8.32031 78.5593 8.34375 78.9187 8.34375C81.8718 8.34375 83.3484 7.40625 83.3484 5.53125C83.3484 4.74219 83.0632 4.18359 82.4929 3.85547C81.9304 3.51953 80.9929 3.35156 79.6804 3.35156C79.571 3.35156 79.2 3.39062 78.5671 3.46875ZM96.696 8.37891L100.962 18H97.5281L94.3171 10.6641L91.8796 13.3477L91.0125 18H87.9656L91.1179 0.832031H94.1648L92.7468 8.63672L99.8718 0.832031H103.481L96.696 8.37891Z" fill="#323232"/>
</svg>
